<?xml version="1.0" encoding="UTF-8"?>
<svg xmlns="http://www.w3.org/2000/svg" viewBox="0 0 512 512" width="512" height="512"><g id="outline"><path d="M491.67529,136.894l-232-120a7.99941,7.99941,0,0,0-7.35058,0l-232,120A7.99987,7.99987,0,0,0,16,144V368a7.99987,7.99987,0,0,0,4.32471,7.106l232,120a8.00136,8.00136,0,0,0,7.35058,0l232-120A7.99987,7.99987,0,0,0,496,368V144A7.99987,7.99987,0,0,0,491.67529,136.894ZM256,33.00684,470.58643,144.00006,256,254.99316,41.41357,144.00006ZM32,157.1449,248,268.869v205.9862L32,363.13086ZM264,474.85522V268.869L480,157.1449v205.986Z"/><path d="M108.42236,151.15527l144,71.999a7.99854,7.99854,0,0,0,7.15528,0l144-71.999a7.99971,7.99971,0,0,0,0-14.31054l-144-72a8.00053,8.00053,0,0,0-7.15528,0l-144,72a7.99971,7.99971,0,0,0,0,14.31054ZM264,203.05475V84.94434L382.11133,144ZM248,84.94434V203.05475L129.88867,144Z"/></g></svg>
