<svg id="Capa_1" enable-background="new 0 0 512 512" height="512" viewBox="0 0 512 512" width="512" xmlns="http://www.w3.org/2000/svg"><g><g><path d="m470.242 107.114c0 35.637-13.875 69.138-39.068 94.331-2.929 2.93-2.929 7.678 0 10.607 1.465 1.464 3.385 2.196 5.304 2.196s3.839-.732 5.304-2.196c28.026-28.027 43.461-65.295 43.461-104.938s-15.437-76.904-43.464-104.918c-2.93-2.929-7.679-2.929-10.606.003-2.928 2.93-2.927 7.678.003 10.606 25.192 25.18 39.066 58.673 39.066 94.309z"/><path d="m401.354 171.626c-2.929 2.929-2.929 7.678.001 10.606 1.464 1.464 3.384 2.196 5.303 2.196s3.839-.732 5.304-2.197c41.412-41.414 41.412-108.799 0-150.213-2.929-2.929-7.678-2.93-10.606-.001-2.93 2.929-2.93 7.678-.001 10.606 35.564 35.567 35.564 93.436-.001 129.003z"/><path d="m371.506 141.776c-2.929 2.929-2.929 7.678.001 10.606 1.464 1.464 3.384 2.196 5.303 2.196s3.839-.732 5.304-2.197c24.954-24.955 24.954-65.559 0-90.514-2.93-2.928-7.678-2.928-10.607 0-2.929 2.93-2.929 7.678 0 10.607 19.105 19.106 19.105 50.195-.001 69.302z"/><path d="m75.523 214.249c1.919 0 3.839-.732 5.304-2.196 2.929-2.93 2.929-7.678 0-10.607-25.193-25.193-39.068-58.694-39.068-94.331 0-35.636 13.874-69.129 39.066-94.308 2.93-2.929 2.931-7.677.003-10.606-2.929-2.931-7.678-2.932-10.606-.003-28.028 28.012-43.464 65.272-43.464 104.916s15.435 76.911 43.461 104.938c1.465 1.464 3.384 2.197 5.304 2.197z"/><path d="m100.067 182.231c1.465 1.465 3.384 2.197 5.304 2.197 1.919 0 3.839-.732 5.303-2.196 2.93-2.929 2.93-7.678.001-10.606-35.564-35.566-35.564-93.435 0-129.002 2.929-2.929 2.929-7.678-.001-10.606-2.929-2.93-7.678-2.929-10.606.001-41.413 41.413-41.413 108.798-.001 150.212z"/><path d="m129.887 152.381c1.465 1.465 3.384 2.197 5.304 2.197 1.919 0 3.839-.732 5.303-2.196 2.93-2.929 2.93-7.678.001-10.606-19.106-19.107-19.106-50.196 0-69.302 2.929-2.93 2.929-7.678 0-10.607-2.93-2.928-7.678-2.928-10.607 0-24.955 24.955-24.955 65.559-.001 90.514z"/><path d="m204.065 192.425c-9.417 3.153-16.225 12.052-16.225 22.516 0 12.234 9.301 22.333 21.203 23.605v7.236c0 19.281 15.686 34.968 34.967 34.968h24.009c19.28 0 34.967-15.686 34.967-34.968v-7.236c11.902-1.271 21.203-11.371 21.203-23.605 0-10.466-6.81-19.366-16.229-22.518.149-16.209 1.765-19.014 14.571-31.821 36.685-36.685 36.685-96.377 0-133.062-17.759-17.759-41.386-27.539-66.531-27.539-25.115 0-48.741 9.778-66.532 27.541-36.652 36.685-36.652 96.374.002 133.06 12.397 12.398 14.402 14.999 14.595 31.823zm96.381 31.258h-27.438c-4.143 0-7.5 3.357-7.5 7.5s3.357 7.5 7.5 7.5h14.978v7.099c0 11.011-8.957 19.968-19.967 19.968h-24.009c-11.01 0-19.967-8.957-19.967-19.968v-7.099h14.354c4.143 0 7.5-3.357 7.5-7.5s-3.357-7.5-7.5-7.5h-26.815c-4.82 0-8.742-3.922-8.742-8.742 0-4.821 3.922-8.743 8.742-8.743h88.864c4.82 0 8.742 3.922 8.742 8.743 0 4.82-3.921 8.742-8.742 8.742zm-100.374-185.533c14.952-14.928 34.815-23.149 55.928-23.149 21.138 0 40.999 8.22 55.923 23.144 30.837 30.838 30.837 81.014 0 111.851-15.191 15.192-18.543 21.803-18.933 41.201h-29.49v-71.144h14.496c4.143 0 7.5-3.357 7.5-7.5s-3.357-7.5-7.5-7.5h-43.964c-4.143 0-7.5 3.357-7.5 7.5s3.357 7.5 7.5 7.5h14.468v71.144h-29.461c-.391-19.375-3.749-25.988-18.959-41.199-30.812-30.838-30.812-81.016-.008-111.848z"/><path d="m462.798 423.57c0-20.741-7.146-40.257-21.242-58.006-11.552-14.545-27.845-27.97-48.432-39.902-30.671-17.755-64.105-28.229-81.305-32.893-2.277-.619-4.593-.115-6.366 1.17-.111.079-.23.168-.367.281l-49.086 40.458-49.059-40.457c-.122-.1-.231-.182-.335-.255-1.778-1.304-4.109-1.821-6.4-1.198-20.843 5.654-60.793 18.488-94.179 40.918-37.689 25.319-56.799 55.56-56.799 89.883v68.444c-.284 5.189-.006 11.016 3.945 15.202 3.978 4.215 9.76 4.783 14.893 4.783h31.577c4.143 0 7.5-3.357 7.5-7.5s-3.357-7.5-7.5-7.5h-31.575c-2.038 0-3.979-2.137-3.851-4.34.009-.145.013-.29.013-.435v-68.653c0-29.018 16.878-55.07 50.163-77.432 13.865-9.315 28.997-16.9 43.301-22.938l-13.934 64.69c-.689 3.2.777 6.478 3.622 8.098l22.933 13.051-19.285 32.875c-1.317 2.245-1.376 5.013-.155 7.311l25.36 47.775h-41.952c-4.143 0-7.5 3.357-7.5 7.5s3.357 7.5 7.5 7.5h309.649c5.145 0 10.94-.568 14.922-4.787 3.95-4.187 4.229-10.012 3.944-15.199zm-137.869-13.5 20.986 35.819-27.132 51.111h-16.609l-16.257-89.699 14.017-29.822 7.377 4.113c1.128.628 2.386.949 3.652.949.727 0 1.455-.105 2.163-.318 1.944-.586 3.567-1.935 4.5-3.738l23.484-45.441 11.336 52.628-24.757 14.089c-1.742.992-3.016 2.641-3.535 4.578-.518 1.938-.24 4.002.775 5.731zm-68.929-57.084 30.8 17.172-13.453 28.622h-34.692l-13.437-28.632zm-15.845 60.793h31.691l15.083 83.221h-61.833zm71.46-105.501c6.002 1.699 13.487 3.987 21.839 6.907l-25.6 49.535-38.605-21.522zm-107.466 56.442-25.582-49.542c8.231-2.875 15.692-5.159 21.845-6.899l42.342 34.918zm-38.063 81.172 21.012-35.817c1.016-1.73 1.295-3.795.776-5.733s-1.792-3.588-3.535-4.58l-24.757-14.089 11.333-52.617 23.457 45.428c.932 1.804 2.556 3.153 4.499 3.739.709.214 1.438.319 2.165.319 1.267 0 2.525-.321 3.652-.949l7.396-4.123 13.999 29.83-16.23 89.7h-16.636zm277.846 51.108h-108.167l25.361-47.774c1.221-2.298 1.162-5.063-.153-7.308l-19.263-32.877 22.936-13.053c2.845-1.619 4.312-4.897 3.622-8.098l-13.93-64.673c10.235 4.32 20.928 9.439 31.268 15.425 41.268 23.92 62.192 52.494 62.192 84.928v68.655c0 .145.004.29.013.435.128 2.202-1.822 4.34-3.879 4.34z"/></g></g></svg>