<?xml version="1.0" encoding="UTF-8"?>
<svg xmlns="http://www.w3.org/2000/svg" viewBox="0 0 512 512" width="512" height="512"><g id="outline"><path d="M472,16H40A24.0275,24.0275,0,0,0,16,40V472a24.0275,24.0275,0,0,0,24,24H472a24.0275,24.0275,0,0,0,24-24V40A24.0275,24.0275,0,0,0,472,16ZM40,32H472a8.00917,8.00917,0,0,1,8,8V64H32V40A8.00917,8.00917,0,0,1,40,32ZM472,480H40a8.00917,8.00917,0,0,1-8-8V80H480V472A8.00917,8.00917,0,0,1,472,480Z"/><circle cx="48" cy="48" r="8"/><circle cx="72" cy="48" r="8"/><circle cx="96" cy="48" r="8"/><path d="M248,224a64,64,0,1,0-64-64A64.07207,64.07207,0,0,0,248,224Zm0-112a48,48,0,1,1-48,48A48.05375,48.05375,0,0,1,248,112Z"/><path d="M219.56348,178.65625l24,16a7.99891,7.99891,0,0,0,8.875,0l24-16A7.99945,7.99945,0,0,0,280.001,172L280,148a7.99943,7.99943,0,0,0-3.5625-6.65625l-23.999-15.999a8.00131,8.00131,0,0,0-8.875,0l-8.61426,5.74218,8.875,13.3125,4.17676-2.78418L264,152.28125l.001,15.4375-16,10.666-16-10.666V152.28223l3.90136-2.60157-8.877-13.3125-7.46289,4.97657A8.00219,8.00219,0,0,0,216.001,148.001V172A7.99943,7.99943,0,0,0,219.56348,178.65625Z"/><path d="M264,280V240H248v40a8.00917,8.00917,0,0,1-8,8H216V249.88867a23.86832,23.86832,0,0,0-13.2666-21.46582L75.77734,164.94434A6.83278,6.83278,0,0,1,78.833,152H168V136H78.833A22.85927,22.85927,0,0,0,56,158.833V294.58594a24.01312,24.01312,0,0,0,12.34473,20.97949l112,62.22168A23.99954,23.99954,0,0,0,216,356.80762V304h24A24.0275,24.0275,0,0,0,264,280Zm-64,76.80762a8.00028,8.00028,0,0,1-11.88574,6.99316L76.11523,301.5791A8.00494,8.00494,0,0,1,72,294.58594V180.94434L195.57812,242.7334A7.95653,7.95653,0,0,1,200,249.88867Z"/><path d="M352,360h-8V344a40,40,0,0,0-80,0v16h-8a8.00039,8.00039,0,0,0-8,8v80a8.00039,8.00039,0,0,0,8,8h96a8.00039,8.00039,0,0,0,8-8V368A8.00039,8.00039,0,0,0,352,360Zm-72-16a24,24,0,0,1,48,0v16H280Zm64,96H264V376h80Z"/><path d="M304,424a15.99656,15.99656,0,0,0,13.835-8H328V400H317.835a15.96288,15.96288,0,0,0-27.66992,0H280v16h10.165A15.99656,15.99656,0,0,0,304,424Z"/><path d="M420,272a43.98762,43.98762,0,0,0-20,83.17188V384H384a8.00039,8.00039,0,0,0-8,8v40a8.00039,8.00039,0,0,0,8,8h16v8a8.00039,8.00039,0,0,0,8,8h24a8.00039,8.00039,0,0,0,8-8V355.17188A43.98762,43.98762,0,0,0,420,272ZM392,424V400h8v24Zm32,16h-8V359.81006c1.31836.11938,2.65088.18994,4,.18994s2.68164-.07056,4-.18994Zm-4-96a28,28,0,1,1,28-28A28.03146,28.03146,0,0,1,420,344Z"/><path d="M420,304a12,12,0,1,0,12,12A12.01312,12.01312,0,0,0,420,304Z"/><path d="M104,392V352H88v40a32.03667,32.03667,0,0,0,32,32H232V408H120A16.01833,16.01833,0,0,1,104,392Z"/><path d="M416,176v80h16V176a32.03667,32.03667,0,0,0-32-32H328v16h72A16.01833,16.01833,0,0,1,416,176Z"/></g></svg>
